Genre:Drama
Language:English 
http://www.imdb.com/title/tt1533817/
Source:DVDSCR
............................................
General
Complete name :Stomp.The.Yard.2.Homecoming.2010.DVDSCR.H264.FEEL-FREE
Format : MPEG-4
Format profile : Base Media
Codec ID : isom
File size : 1.04 GiB
Duration : 1h 27mn
Overall bit rate : 1 695 Kbps
.............................................
Video
ID : 1
Format : AVC
Format/Info : Advanced Video Codec
Format profile : Baseline@L5.1
Format settings, CABAC : No
Format settings, ReFrames : 1 frame
Codec ID : avc1
Codec ID/Info : Advanced Video Coding
Duration : 1h 27mn
Bit rate mode : Variable
Bit rate : 1 525 Kbps
Width : 688 pixels
Height : 288 pixels
Display aspect ratio : 2.35:1
Frame rate mode : Constant
Frame rate : 23.976 fps
Resolution : 24 bits
Colorimetry : 4:2:0
Scan type : Progressive
Bits/(Pixel*Frame) : 0.321
Stream size : 956 MiB (90%)
..............................................
Audio
ID : 2
Format : AAC
Format/Info : Advanced Audio Codec
Format version : Version 4
Format profile : LC
Format settings, SBR : No
Codec ID : 40
Duration : 1h 27mn
Bit rate mode : Variable
Bit rate : 165 Kbps
Channel(s) : 2 channels
Channel positions : L R
Sampling rate : 48.0 KHz
Resolution : 16 bits
Stream size : 104 MiB (10%)
...............................................
Plot:
Chance Harris looks to find a balance between his school, work, relationships and opportunity to perform at the nationally televised step competition during homecoming weekend at Truth University
 
http://www.starshare.ro/bitbucket/Stomp.The.Yard.2.Homecoming.2010.DVDSCR.H264.FEEL-FREE.mp4_thumbs_%5B2010.08.08_09.28.51%5D.jpg